<svg xmlns="http://www.w3.org/2000/svg" viewBox="0 0 300 300"><defs><style>.a,.b,.c,.d{fill:none;stroke-width:13px;}.a{stroke:#999;}.a,.c,.d{stroke-linecap:round;stroke-linejoin:round;}.b,.d{stroke:#fff;}.b{stroke-miterlimit:10;}.c{stroke:#ccc;}</style></defs><title>wI</title><path class="a" d="M213.92,167.59c4.41,44.79-113.5,68.71-148.79,28.33"/><ellipse class="b" cx="126.22" cy="74.27" rx="101.57" ry="43.3" transform="translate(-13.02 28.88) rotate(-12.42)"/><path d="M115.3,194c-16.86,0-32.64-1.9-46.12-5.65-25.43-7.07-40.67-20.3-42.92-37.26a34.4,34.4,0,0,1,4.29-21.26l22.84,12.42A9,9,0,0,0,52,147.7c.57,4.27,7.22,10.93,24.11,15.63,18.17,5.05,42.84,6.06,67.67,2.77s48.38-10.69,64.61-20.31c15.08-8.93,19.77-17.09,19.2-21.37L253.4,121c2.25,17-9,33.7-31.73,47.15-19.42,11.5-45.85,19.92-74.45,23.71A243.87,243.87,0,0,1,115.3,194Z"/><path class="c" d="M42,136.06a21.71,21.71,0,0,0-2.83,13.35c3.14,23.71,50.77,36.95,106.38,29.58s98.14-32.57,95-56.27"/><path class="a" d="M79,102.06C101.78,84.38,123.16,80.18,155.48,82"/><path class="d" d="M185.9,235.36c3.56,10.18.54,21.15-2.9,28.25-4.68,9.66-15.08,11.17-22.21,8.62,0,0,5.21-28.24-62.79-32.83,0,0,52,6.6,67.5-8.34"/></svg>