<svg xmlns="http://www.w3.org/2000/svg" viewBox="0 0 300 300"><defs><style>.a{stroke:#fff;}.a,.b{stroke-linecap:round;stroke-linejoin:round;stroke-width:13px;}.b{fill:none;stroke:#8fa4d3;}.c{fill:#fff;}</style></defs><title>wI</title><polygon class="a" points="259.99 161.92 228.87 161.92 213.31 188.87 228.87 215.83 259.99 215.83 275.56 188.87 259.99 161.92"/><rect x="-6.86" y="-27.76" width="323" height="180.28"/><line class="b" x1="21" y1="141.63" x2="279" y2="141.63"/><path class="b" d="M21.73,108.14a71.62,71.62,0,0,1,105-35.78h0A58.68,58.68,0,0,1,239.9,62.48h0a48,48,0,0,1,38.36,47"/><polygon class="a" points="96.17 191.35 53.68 191.35 32.43 228.16 53.68 264.96 96.17 264.96 117.42 228.16 96.17 191.35"/><path class="c" d="M201.53,246.35h-9.41a4.85,4.85,0,0,0-4.2,2.42l-4.71,8.15a4.85,4.85,0,0,0,0,4.85l4.71,8.15a4.85,4.85,0,0,0,4.2,2.42h9.41a4.85,4.85,0,0,0,4.2-2.42l4.71-8.15a4.85,4.85,0,0,0,0-4.85l-4.71-8.15A4.85,4.85,0,0,0,201.53,246.35Z"/><path class="c" d="M168.23,190.46h-9.41a4.85,4.85,0,0,0-4.2,2.42L149.92,201a4.85,4.85,0,0,0,0,4.85l4.71,8.15a4.85,4.85,0,0,0,4.2,2.42h9.41a4.85,4.85,0,0,0,4.2-2.42l4.71-8.15a4.85,4.85,0,0,0,0-4.85l-4.71-8.15A4.85,4.85,0,0,0,168.23,190.46Z"/></svg>