<svg xmlns="http://www.w3.org/2000/svg" viewBox="0 0 300 300"><defs><style>.a,.b{fill:none;stroke-linecap:round;stroke-linejoin:round;stroke-width:13px;}.a{stroke:#8fa4d3;}.b{stroke:#fff;}</style></defs><title>wI</title><rect x="-6.86" y="-27.76" width="323" height="180.28"/><line class="a" x1="21" y1="141.61" x2="279" y2="141.61"/><path class="a" d="M21,108.12A71.62,71.62,0,0,1,126,72.33h0a58.68,58.68,0,0,1,113.21-9.88h0a48,48,0,0,1,38.36,47"/><line class="b" x1="139.06" y1="125.29" x2="114.44" y2="175.06"/><line class="b" x1="101.17" y1="201.88" x2="76.55" y2="251.66"/><line class="b" x1="63.29" y1="278.48" x2="38.66" y2="328.25"/><line class="b" x1="235.25" y1="125.29" x2="210.63" y2="175.06"/><line class="b" x1="197.36" y1="201.88" x2="172.74" y2="251.66"/><line class="b" x1="170.1" y1="159.48" x2="145.48" y2="209.25"/><line class="b" x1="132.21" y1="236.07" x2="107.59" y2="285.84"/><line class="b" x1="159.47" y1="278.48" x2="134.85" y2="328.25"/></svg>