<svg xmlns="http://www.w3.org/2000/svg" viewBox="0 0 300 300"><defs><style>.a,.b{fill:none;stroke-linecap:round;stroke-linejoin:round;stroke-width:13px;}.a{stroke:#fff;}.b{stroke:#c69c6d;}</style></defs><title>wI</title><path class="a" d="M-4.91,139.17H51.32a22.68,22.68,0,1,0,0-45.35"/><path class="a" d="M-4.91,160.83H51.32a22.68,22.68,0,1,1,0,45.35"/><path class="b" d="M266.18,113.62c-29.75,0-46.65,35.27-81.13,35.27s-51.38-35.27-81.13-35.27"/><path class="b" d="M266.18,151.22c-29.75,0-46.65,35.27-81.13,35.27s-51.38-35.27-81.13-35.27"/><path class="b" d="M266.18,75.91c-29.75,0-46.65,35.27-81.13,35.27s-51.38-35.27-81.13-35.27"/><path class="b" d="M266.18,188.82c-29.75,0-46.65,35.27-81.13,35.27s-51.38-35.27-81.13-35.27"/></svg>