<svg xmlns="http://www.w3.org/2000/svg" viewBox="0 0 300 300"><defs><style>.a,.b{fill:none;stroke-linecap:round;stroke-linejoin:round;stroke-width:13px;}.a{stroke:#8fa4d3;}.b{stroke:#fff;}.c{fill:#fff;}</style></defs><title>wI</title><rect x="-6.86" y="-27.76" width="323" height="180.28"/><line class="a" x1="21" y1="141.61" x2="279" y2="141.61"/><path class="a" d="M21,108.12A71.62,71.62,0,0,1,126,72.33h0a58.68,58.68,0,0,1,113.21-9.88h0a48,48,0,0,1,38.36,47"/><line class="b" x1="249.56" y1="125.29" x2="173.78" y2="278.48"/><line class="b" x1="201.61" y1="125.29" x2="125.84" y2="278.48"/><line class="b" x1="201.32" y1="125.29" x2="125.54" y2="278.48"/><path class="c" d="M138.69,173.6l-15-8.66V146l15-8.66a9.13,9.13,0,1,0-9.13-15.81l-15,8.66-16.43-9.48V103.37a9.13,9.13,0,1,0-18.26,0v17.31l-16.42,9.48-15-8.66a9.13,9.13,0,1,0-9.13,15.81l15,8.66v19l-15,8.66a9.13,9.13,0,1,0,9.13,15.81l15-8.66,16.42,9.48v17.31a9.13,9.13,0,0,0,18.26,0V190.24l16.43-9.48,15,8.66a9.13,9.13,0,1,0,9.13-15.81Zm-33.25-8.66L89,174.43l-16.42-9.48V146L89,136.5,105.44,146Z"/></svg>