<svg xmlns="http://www.w3.org/2000/svg" viewBox="0 0 300 300"><defs><style>.a{fill:#fff;}.b,.c{fill:none;stroke-linecap:round;stroke-linejoin:round;stroke-width:13px;}.b{stroke:#8fa4d3;}.c{stroke:#fff;}</style></defs><title>wI</title><circle class="a" cx="139.95" cy="186.8" r="13"/><circle class="a" cx="73.39" cy="200.37" r="13"/><circle class="a" cx="79.33" cy="259.59" r="26.37"/><rect x="-6.86" y="-27.76" width="323" height="180.28"/><line class="b" x1="21" y1="150.28" x2="279" y2="150.28"/><path class="b" d="M21.73,116.79A71.62,71.62,0,0,1,126.7,81h0A58.68,58.68,0,0,1,239.9,71.13h0a48,48,0,0,1,38.36,47"/><line class="c" x1="215.03" y1="125.29" x2="190.41" y2="175.06"/><line class="c" x1="177.15" y1="201.88" x2="152.52" y2="251.66"/><line class="c" x1="139.26" y1="278.48" x2="114.63" y2="328.25"/><line class="c" x1="246.07" y1="159.48" x2="221.45" y2="209.25"/><line class="c" x1="208.18" y1="236.07" x2="183.56" y2="285.84"/></svg>