<svg xmlns="http://www.w3.org/2000/svg" viewBox="0 0 300 300"><defs><style>.a{fill:none;stroke:#fff;}.a,.b{stroke-linecap:round;stroke-linejoin:round;stroke-width:13px;}.b{stroke:#a0cc00;}</style></defs><title>wI</title><path class="a" d="M159,64.95a27,27,0,1,1,20.55,44.52H101.88"/><path class="a" d="M260.38,109.46H179.55a27,27,0,0,1-27-27c0-3.73,1.46-11.71,6.45-17.52"/><path class="a" d="M30.47,127.27c68.35,0,18.17,22.82,101.68,20.41"/><path class="a" d="M32.65,153.65c45,0,22,28.91,105.5,26.5"/><path class="b" d="M251.75,138.42c-18.19,4.44-30.16,11.48-35.05,13.75,20.85,1.33,45.25,6.66,43.48,24s-20.41,24-43.48,29.28S171,221.24,150,244.29c7.05-44.31,8.23-69.74,6.45-81s14.11-29.4,60.25-11.07"/><path class="b" d="M165.65,212c9.5-21.3,30.23-52.76,81.37-72.28"/></svg>