<svg xmlns="http://www.w3.org/2000/svg" viewBox="0 0 300 300"><defs><style>.a{stroke:#c5daff;}.a,.b,.c{stroke-linecap:round;stroke-linejoin:round;stroke-width:13px;}.b{fill:none;stroke:#ccc;}.c{stroke:#b3b3b3;}</style></defs><title>wI</title><path class="a" d="M149.51,184.52A69.18,69.18,0,0,1,96.26,71.18a79,79,0,1,0,80.64,107.7A68.94,68.94,0,0,1,149.51,184.52Z"/><path d="M123.52,175.59c-6.5,9.5-10.25,22.25-10.25,27s-2.5,15.5,14.25,15.5,148,3.16,148-5.55.21-31-4.54-38.7C198.77,172.59,123.52,175.59,123.52,175.59Z"/><line class="b" x1="125.04" y1="212.55" x2="269.28" y2="212.55"/><path class="c" d="M125,187.38a39.86,39.86,0,0,1,58.42-19.91h0a32.66,32.66,0,0,1,63-5.5h0a26.69,26.69,0,0,1,21.35,26.14"/></svg>