<svg xmlns="http://www.w3.org/2000/svg" viewBox="0 0 300 300"><defs><style>.a{stroke:#999;stroke-linecap:round;stroke-linejoin:round;}.a,.b{stroke-width:13px;}.b{stroke:#fff;stroke-miterlimit:10;}</style></defs><title>wI</title><path class="a" d="M219.24,119.94a52,52,0,0,0-30.52-14.13A25.75,25.75,0,0,0,138,106.93a39.19,39.19,0,0,0-38.08,66,39.63,39.63,0,0,0,3.13,2.68,54.53,54.53,0,0,0,89.65,62,39.19,39.19,0,0,0,43.71-63.83c-.9-.85-1.82-1.65-2.77-2.4A52.2,52.2,0,0,0,219.24,119.94Z"/><path class="b" d="M226.11,127.65a52,52,0,0,0-10.84-31.84,25.75,25.75,0,0,0-35.84-35.93,39.19,39.19,0,0,0-74,18,39.63,39.63,0,0,0,.22,4.12,54.53,54.53,0,0,0,17,107.66A39.19,39.19,0,0,0,199,177.2c0-1.24-.06-2.46-.18-3.67A52.2,52.2,0,0,0,226.11,127.65Z"/></svg>