<svg xmlns="http://www.w3.org/2000/svg" viewBox="0 0 300 300"><defs><style>.a,.b{fill:none;stroke:#ffd400;}.a{stroke-miterlimit:10;}.a,.b,.c,.d{stroke-width:13px;}.b,.c,.d{stroke-linecap:round;stroke-linejoin:round;}.b{stroke-dasharray:37.28 33.13;}.c{stroke:#c5daff;}.d{stroke:#fff;}</style></defs><title>wI</title><circle class="a" cx="100.61" cy="150" r="47.78"/><circle class="b" cx="100.61" cy="150" r="78.44"/><path d="M123.45,175.59c-6.5,9.5-10.25,22.25-10.25,27s-2.5,15.5,14.25,15.5,148,3.16,148-5.55.21-31-4.54-38.7C198.7,172.59,123.45,175.59,123.45,175.59Z"/><line class="c" x1="124.98" y1="212.55" x2="269.21" y2="212.55"/><path class="d" d="M125,187.38a39.86,39.86,0,0,1,58.42-19.91h0a32.66,32.66,0,0,1,63-5.5h0a26.69,26.69,0,0,1,21.35,26.14"/></svg>