<svg xmlns="http://www.w3.org/2000/svg" viewBox="0 0 300 300"><defs><style>.a{fill:none;stroke:#8fa4d3;}.a,.b{stroke-linecap:round;stroke-linejoin:round;stroke-width:13px;}.b{stroke:#fff;}.c{fill:#fff;}</style></defs><title>wI</title><rect x="-6.86" y="-12.76" width="323" height="180.28"/><line class="a" x1="200.69" y1="126.68" x2="166.19" y2="196.42"/><line class="a" x1="249" y1="125.47" x2="195.23" y2="234.19"/><line class="a" x1="111.1" y1="126.68" x2="76.6" y2="196.42"/><line class="a" x1="21" y1="141.61" x2="279" y2="141.61"/><path class="a" d="M21,108.12A71.62,71.62,0,0,1,126,72.33h0a58.68,58.68,0,0,1,113.21-9.88h0a48,48,0,0,1,38.36,47"/><polygon class="b" points="153.09 262.31 153.09 282.86 170.88 293.13 188.68 282.86 188.68 262.31 170.88 252.04 153.09 262.31"/><polygon class="b" points="71.43 216.89 44.12 216.89 30.47 240.54 44.12 264.19 71.43 264.19 85.09 240.54 71.43 216.89"/><polygon class="c" points="159.65 211.48 146.88 211.48 140.5 222.54 146.88 233.6 159.65 233.6 166.04 222.54 159.65 211.48"/></svg>