<svg xmlns="http://www.w3.org/2000/svg" viewBox="0 0 300 300"><defs><style>.a{fill:none;stroke:#fff;stroke-miterlimit:10;stroke-width:13px;}.b{fill:#fff;}</style></defs><title>wI</title><circle class="a" cx="150" cy="150" r="100.96"/><path class="b" d="M178.5,90.14q12.86,12.76,12.86,29.46T181.82,148a43.54,43.54,0,0,1-24.07,15.25v13.49a9.86,9.86,0,0,1-2.9,7.26,9.73,9.73,0,0,1-7.16,2.9,10.06,10.06,0,0,1-7.26-2.9,9.67,9.67,0,0,1-3-7.26V155.19c0-.14,0-.21.1-.21s.07-.07,0-.21a.89.89,0,0,1-.1-.41,9.89,9.89,0,0,1,3-7.05,9.61,9.61,0,0,1,7.16-3.11,23,23,0,0,0,16.7-6.85,22.32,22.32,0,0,0,7-16.5,22,22,0,0,0-7-16.39,23.15,23.15,0,0,0-16.7-6.74q-13.28,0-19.92,11.41a10.39,10.39,0,0,1-14.11,3.73,10.32,10.32,0,0,1-4.56-6.22A10,10,0,0,1,110,99a43.62,43.62,0,0,1,68.47-8.82ZM140.42,201.56a9.9,9.9,0,0,1,7.26-3,9.58,9.58,0,0,1,7.16,3,10,10,0,0,1,2.9,7.16v3.73a9.86,9.86,0,0,1-2.9,7.26,9.73,9.73,0,0,1-7.16,2.9,10.06,10.06,0,0,1-7.26-2.9,9.68,9.68,0,0,1-3-7.26v-3.73A9.78,9.78,0,0,1,140.42,201.56Z"/></svg>