<svg xmlns="http://www.w3.org/2000/svg" viewBox="0 0 300 300"><defs><style>.a{fill:#fff;}.b{fill:none;stroke:#8fa4d3;stroke-linecap:round;stroke-linejoin:round;stroke-width:13px;}</style></defs><title>wI</title><circle class="a" cx="163" cy="226.28" r="13"/><circle class="a" cx="263.96" cy="199.78" r="13"/><circle class="a" cx="136.29" cy="186.78" r="13"/><circle class="a" cx="85.29" cy="167.52" r="13"/><circle class="a" cx="176" cy="167.52" r="13"/><circle class="a" cx="74.29" cy="234.65" r="13"/><circle class="a" cx="123.29" cy="244.95" r="13"/><circle class="a" cx="38.29" cy="180.52" r="13"/><circle class="a" cx="38.29" cy="252.77" r="13"/><circle class="a" cx="237.96" cy="262.78" r="13"/><circle class="a" cx="176" cy="260.96" r="13"/><circle class="a" cx="91.81" cy="207.58" r="13"/><circle class="a" cx="89" cy="272.59" r="13"/><circle class="a" cx="209.48" cy="226.28" r="13"/><circle class="a" cx="223.09" cy="180.74" r="13"/><rect x="-6.86" y="-27.76" width="323" height="180.28"/><line class="b" x1="21" y1="141.61" x2="279" y2="141.61"/><path class="b" d="M21,108.12A71.62,71.62,0,0,1,126,72.33h0a58.68,58.68,0,0,1,113.21-9.88h0a48,48,0,0,1,38.36,47"/></svg>