<svg xmlns="http://www.w3.org/2000/svg" viewBox="0 0 300 300"><defs><style>.a{fill:#fff;}.b{fill:none;stroke:#8fa4d3;stroke-linecap:round;stroke-linejoin:round;stroke-width:13px;}</style></defs><title>wI</title><circle class="a" cx="163.04" cy="226.24" r="13"/><circle class="a" cx="264" cy="199.74" r="13"/><circle class="a" cx="136.33" cy="186.74" r="13"/><circle class="a" cx="85.33" cy="167.48" r="13"/><circle class="a" cx="176.04" cy="167.48" r="13"/><circle class="a" cx="74.33" cy="234.61" r="13"/><circle class="a" cx="123.33" cy="244.91" r="13"/><circle class="a" cx="238" cy="262.74" r="13"/><circle class="a" cx="176.04" cy="260.92" r="13"/><circle class="a" cx="91.85" cy="207.55" r="13"/><circle class="a" cx="89.05" cy="272.55" r="13"/><circle class="a" cx="209.52" cy="226.24" r="13"/><circle class="a" cx="223.13" cy="180.71" r="13"/><rect x="-6.81" y="-27.8" width="323" height="180.28"/><line class="b" x1="21.04" y1="141.58" x2="279.04" y2="141.58"/><path class="b" d="M21,108.08A71.62,71.62,0,0,1,126,72.3h0a58.68,58.68,0,0,1,113.21-9.88h0a48,48,0,0,1,38.36,47"/></svg>