<svg xmlns="http://www.w3.org/2000/svg" viewBox="0 0 300 300"><defs><style>.a,.b{fill:none;stroke-linecap:round;stroke-linejoin:round;stroke-width:13px;}.a{stroke:#8fa4d3;}.b{stroke:#fff;}</style></defs><title>wI</title><rect x="-6.86" y="-12.76" width="323" height="180.28"/><line class="a" x1="20.27" y1="158.21" x2="278.27" y2="158.21"/><path class="a" d="M20.27,124.72a71.62,71.62,0,0,1,105-35.78h0a58.68,58.68,0,0,1,113.21-9.88h0a48,48,0,0,1,38.36,47"/><line class="a" x1="258.39" y1="123.6" x2="233.77" y2="173.37"/><line class="a" x1="220.5" y1="200.19" x2="195.88" y2="249.96"/><line class="a" x1="220.5" y1="200.19" x2="195.88" y2="249.96"/><line class="a" x1="193.24" y1="157.78" x2="168.62" y2="207.55"/><line class="a" x1="155.35" y1="234.38" x2="130.73" y2="284.15"/><polyline class="b" points="142.97 106.85 89.47 189.14 126.97 189.14 77.97 260.64"/></svg>