<svg xmlns="http://www.w3.org/2000/svg" viewBox="0 0 300 300"><defs><style>.a{fill:none;stroke:#8fa4d3;}.a,.b{stroke-linecap:round;stroke-linejoin:round;stroke-width:13px;}.b{stroke:#fff;}.c{fill:#fff;}</style></defs><title>wI</title><rect x="-6.86" y="-12.76" width="323" height="180.28"/><line class="a" x1="21" y1="157.64" x2="279" y2="157.64"/><path class="a" d="M21.73,124.14a71.62,71.62,0,0,1,105-35.78h0A58.68,58.68,0,0,1,239.9,78.49h0a48,48,0,0,1,38.36,47"/><line class="a" x1="221.4" y1="119.35" x2="195.02" y2="172.67"/><line class="a" x1="177.08" y1="208.94" x2="142.58" y2="278.69"/><line class="a" x1="131.81" y1="119.35" x2="105.44" y2="172.67"/><line class="a" x1="87.49" y1="208.94" x2="52.99" y2="278.69"/><polygon class="b" points="259.99 190.26 228.87 190.26 213.31 217.21 228.87 244.16 259.99 244.16 275.56 217.21 259.99 190.26"/><path class="c" d="M201.53,262.35h-9.41a4.85,4.85,0,0,0-4.2,2.42l-4.71,8.15a4.85,4.85,0,0,0,0,4.85l4.71,8.15a4.85,4.85,0,0,0,4.2,2.42h9.41a4.85,4.85,0,0,0,4.2-2.42l4.71-8.15a4.85,4.85,0,0,0,0-4.85l-4.71-8.15A4.85,4.85,0,0,0,201.53,262.35Z"/><path class="c" d="M129.47,219.47h-9.41a4.85,4.85,0,0,0-4.2,2.42L111.15,230a4.85,4.85,0,0,0,0,4.85l4.71,8.15a4.85,4.85,0,0,0,4.2,2.42h9.41a4.85,4.85,0,0,0,4.2-2.42l4.71-8.15a4.85,4.85,0,0,0,0-4.85l-4.71-8.15A4.85,4.85,0,0,0,129.47,219.47Z"/></svg>