<svg xmlns="http://www.w3.org/2000/svg" viewBox="0 0 300 300"><defs><style>.a{fill:#fff;}.b{stroke:#fff;}.b,.c{stroke-linecap:round;stroke-linejoin:round;stroke-width:13px;}.c{fill:none;stroke:#8fa4d3;}</style></defs><title>wI</title><circle class="a" cx="95.65" cy="191.96" r="13"/><circle class="a" cx="48.09" cy="251.75" r="13"/><circle class="a" cx="189.46" cy="191.96" r="13"/><polygon class="b" points="259.99 182.9 228.87 182.9 213.31 209.85 228.87 236.81 259.99 236.81 275.56 209.85 259.99 182.9"/><polygon class="b" points="163.55 234.4 143.28 258.03 153.61 287.38 184.21 293.12 204.47 269.49 194.14 240.13 163.55 234.4"/><rect x="-6.86" y="-27.76" width="323" height="180.28"/><line class="c" x1="21" y1="150.28" x2="279" y2="150.28"/><path class="c" d="M21.73,116.79A71.62,71.62,0,0,1,126.7,81h0A58.68,58.68,0,0,1,239.9,71.13h0a48,48,0,0,1,38.36,47"/></svg>