<svg xmlns="http://www.w3.org/2000/svg" viewBox="0 0 300 300"><defs><style>.a{fill:none;stroke:#8fa4d3;stroke-linecap:round;stroke-linejoin:round;stroke-width:13px;}.b{fill:#fff;}</style></defs><title>wI</title><path class="a" d="M229.19,146.06c-21.37,45.6-35.79,69.54-35.79,89.3a35.79,35.79,0,1,0,71.58,0C265,215.6,250.56,191.66,229.19,146.06Z"/><path class="b" d="M269.5,238.82l-12.17-7V216.41l12.17-7a7.41,7.41,0,1,0-7.41-12.83l-12.17,7-13.33-7.69v-14a7.41,7.41,0,1,0-14.82,0v14l-13.33,7.69-12.17-7a7.41,7.41,0,0,0-7.41,12.83l12.17,7V231.8l-12.17,7a7.41,7.41,0,1,0,7.41,12.83l12.17-7,13.33,7.69v14a7.41,7.41,0,0,0,14.82,0v-14l13.33-7.69,12.17,7a7.41,7.41,0,1,0,7.41-12.83Zm-27-7-13.33,7.69-13.33-7.69V216.41l13.33-7.69,13.33,7.69Z"/><path class="a" d="M161.26,77.38C145,112,134,130.24,134,145.26a27.21,27.21,0,1,0,54.42,0C188.47,130.24,177.51,112,161.26,77.38Z"/><path class="b" d="M191.9,147.89l-9.25-5.34v-11.7l9.25-5.34a5.63,5.63,0,0,0-5.63-9.75L177,121.1l-10.13-5.85V104.57a5.63,5.63,0,0,0-11.26,0v10.68L145.5,121.1l-9.25-5.34a5.63,5.63,0,1,0-5.63,9.75l9.25,5.34v11.7l-9.25,5.34a5.63,5.63,0,1,0,5.63,9.75l9.25-5.34,10.13,5.85v10.68a5.63,5.63,0,1,0,11.26,0V158.15L177,152.31l9.25,5.34a5.63,5.63,0,0,0,5.63-9.75Zm-20.51-5.34-10.13,5.85-10.13-5.85v-11.7L161.26,125l10.13,5.85Z"/><path class="a" d="M242.85,37.9c-13.21,28.19-22.13,43-22.13,55.21a22.13,22.13,0,1,0,44.26,0C265,80.89,256.07,66.09,242.85,37.9Z"/><path class="b" d="M267.78,95.25l-7.52-4.34V81.39L267.78,77a4.58,4.58,0,1,0-4.58-7.93l-7.52,4.34-8.24-4.76V60a4.58,4.58,0,0,0-9.16,0V68.7L230,73.45l-7.52-4.34A4.58,4.58,0,1,0,217.93,77l7.52,4.34V90.9l-7.52,4.34a4.58,4.58,0,1,0,4.58,7.93L230,98.84l8.24,4.76v8.69a4.58,4.58,0,0,0,9.16,0v-8.69l8.24-4.76,7.52,4.34a4.58,4.58,0,1,0,4.58-7.93ZM251.09,90.9l-8.24,4.76-8.24-4.76V81.39l8.24-4.76,8.24,4.76Z"/></svg>