<svg xmlns="http://www.w3.org/2000/svg" viewBox="0 0 300 300"><defs><style>.a{fill:none;stroke:#8fa4d3;stroke-linecap:round;stroke-linejoin:round;stroke-width:13px;}</style></defs><title>wI</title><path class="a" d="M229.19,146.06c-21.37,45.6-35.79,69.54-35.79,89.3a35.79,35.79,0,1,0,71.58,0C265,215.6,250.57,191.66,229.19,146.06Z"/><path class="a" d="M175.16,89c-15,32-25.12,48.81-25.12,62.69a25.12,25.12,0,1,0,50.25,0C200.29,137.84,190.16,121,175.16,89Z"/><path class="a" d="M248,28.84c-15,32-25.12,48.81-25.12,62.69a25.12,25.12,0,1,0,50.25,0C273.1,77.65,263,60.85,248,28.84Z"/></svg>