<?xml version="1.0" encoding="utf-8"?>
<!-- Generator: Adobe Illustrator 21.0.0, SVG Export Plug-In . SVG Version: 6.00 Build 0)  -->
<svg version="1.1" id="Layer_1" xmlns="http://www.w3.org/2000/svg" xmlns:xlink="http://www.w3.org/1999/xlink" x="0px" y="0px"
	 viewBox="0 0 257.1 29.5" style="enable-background:new 0 0 257.1 29.5;" xml:space="preserve">
<style type="text/css">
	.st0{fill:#FFFFFF;}
</style>
<g>
	<g>
		<path class="st0" d="M0,29.5C0,19.7,0,9.8,0,0c32.8,0,65.5,0,98.3,0c0,9.8,0,19.7,0,29.5C65.5,29.5,32.8,29.5,0,29.5z M29.7,7.2
			c-3.8,0-7.5,0-11.3,0c-0.5,0-0.6,0-0.6,0.6c0,4.5,0,9.1,0,13.6c0,0.6,0,0.6,0.6,0.6c7.1,0,14.1,0,21.2,0c1.4,0,2.7-0.1,4-0.5
			c2.4-0.6,4-2,4.6-4.5c0.3-1.3,0.3-2.6,0.2-3.9c-0.3-2.6-1.7-4.4-4.2-5.2c-1.5-0.5-3.1-0.7-4.8-0.7C36.2,7.2,33,7.2,29.7,7.2z
			 M75.3,16.7c0.6,0,1-0.1,1.5-0.1c2.2-0.3,4.1-1.5,4.2-4.2c0.1-2.4-0.9-4.2-3.3-4.9c-0.8-0.2-1.7-0.3-2.5-0.3c-7.6,0-15.2,0-22.8,0
			c-0.6,0-0.6,0-0.6,0.6c0,2.4,0,4.9,0,7.3c0,2.1,0,4.2,0,6.3c0,0.3,0,0.5,0.4,0.5c2.7,0,5.5,0,8.2,0c0.3,0,0.5-0.1,0.4-0.5
			c0-1,0-2,0-3c0-0.3,0.1-0.4,0.4-0.4c1.5,0,3,0,4.5,0c0.3,0,0.6,0.1,0.8,0.3c1.3,1.1,2.6,2.2,3.9,3.2c0.3,0.2,0.5,0.3,0.9,0.3
			c3.3,0,6.7,0,10,0c0.2,0,0.4-0.1,0.6-0.1c-0.2-0.2-0.3-0.4-0.5-0.5c-1.9-1.4-3.9-2.7-5.8-4.1C75.7,17.1,75.5,16.9,75.3,16.7z"/>
		<path class="st0" d="M27,14.5c0-1.4,0-2.8,0-4.2c0-0.3,0-0.4,0.4-0.4c2.6,0,5.2,0,7.8,0.1c0.5,0,1.1,0.1,1.6,0.3
			c1.3,0.4,2.1,1.2,2.3,2.5c0.2,1.2,0.2,2.3,0,3.5c-0.3,1.6-1.5,2.4-3,2.7c-0.6,0.1-1.2,0.2-1.9,0.2c-2.3,0-4.5,0-6.8,0
			c-0.4,0-0.5-0.1-0.5-0.5C27,17.3,27,15.9,27,14.5z"/>
		<path class="st0" d="M65.2,10c1.5,0,2.9,0,4.4,0c0.2,0,0.4,0,0.5,0.1c1.2,0.2,1.8,0.9,1.9,2c0,0.4,0,0.9,0,1.4
			c-0.2,1.1-1,1.8-2.3,1.9c-0.4,0-0.9,0.1-1.3,0.1c-2.3,0-4.6,0-6.9,0c-0.4,0-0.5-0.1-0.5-0.5c0-1.5,0-3.1,0-4.6
			c0-0.4,0.1-0.5,0.5-0.5C62.6,9.9,63.9,9.9,65.2,10C65.2,9.9,65.2,10,65.2,10z"/>
	</g>
	<g>
		<path class="st0" d="M114.3,15.8l3.9,1.2c-0.3,1.1-0.7,2-1.2,2.7c-0.6,0.7-1.3,1.3-2.1,1.7c-0.8,0.4-1.9,0.6-3.2,0.6
			c-1.6,0-2.8-0.2-3.8-0.7c-1-0.5-1.8-1.2-2.6-2.4c-0.7-1.1-1.1-2.6-1.1-4.4c0-2.4,0.6-4.2,1.9-5.5c1.3-1.3,3-1.9,5.4-1.9
			c1.8,0,3.2,0.4,4.3,1.1c1,0.7,1.8,1.9,2.3,3.4l-3.9,0.9c-0.1-0.4-0.3-0.8-0.4-1c-0.2-0.3-0.6-0.6-0.9-0.8
			c-0.4-0.2-0.8-0.3-1.2-0.3c-1,0-1.8,0.4-2.3,1.2c-0.4,0.6-0.6,1.5-0.6,2.8c0,1.6,0.2,2.7,0.7,3.3c0.5,0.6,1.2,0.9,2,0.9
			c0.8,0,1.5-0.2,1.9-0.7C113.8,17.4,114.1,16.7,114.3,15.8z"/>
		<path class="st0" d="M120.3,7.3h4.4v10.8h6.9v3.5h-11.3V7.3z"/>
		<path class="st0" d="M133.7,7.3h11.9v3.1h-7.4v2.3h6.9v2.9h-6.9v2.8h7.6v3.2h-12.1V7.3z"/>
		<path class="st0" d="M156.9,19.3h-5l-0.7,2.4h-4.5l5.4-14.3h4.8l5.4,14.3h-4.6L156.9,19.3z M156,16.2l-1.6-5.2l-1.6,5.2H156z"/>
		<path class="st0" d="M163.7,7.3h4.1l5.4,7.9V7.3h4.2v14.3h-4.2l-5.4-7.9v7.9h-4.2V7.3z"/>
		<path class="st0" d="M180.4,7.3h4.4v5h4.8v-5h4.4v14.3h-4.4v-5.8h-4.8v5.8h-4.4V7.3z"/>
		<path class="st0" d="M205.9,19.3h-5l-0.7,2.4h-4.5L201,7.3h4.8l5.4,14.3h-4.6L205.9,19.3z M205,16.2l-1.6-5.2l-1.6,5.2H205z"/>
		<path class="st0" d="M212.7,7.3h4.1l5.4,7.9V7.3h4.2v14.3h-4.2l-5.4-7.9v7.9h-4.2V7.3z"/>
		<path class="st0" d="M229.4,7.3h6.6c1.3,0,2.3,0.2,3.1,0.5s1.5,0.9,2,1.5c0.5,0.7,0.9,1.4,1.1,2.3c0.2,0.9,0.4,1.8,0.4,2.8
			c0,1.5-0.2,2.7-0.5,3.6c-0.3,0.8-0.8,1.6-1.5,2.1c-0.6,0.6-1.3,0.9-2,1.1c-1,0.3-1.9,0.4-2.6,0.4h-6.6V7.3z M233.8,10.6v7.8h1.1
			c0.9,0,1.6-0.1,2-0.3c0.4-0.2,0.7-0.6,0.9-1.1c0.2-0.5,0.3-1.3,0.3-2.5c0-1.5-0.2-2.6-0.7-3.1c-0.5-0.6-1.3-0.8-2.5-0.8H233.8z"/>
		<path class="st0" d="M244.1,16.9l4.2-0.3c0.1,0.7,0.3,1.2,0.6,1.6c0.5,0.6,1.1,0.9,2,0.9c0.6,0,1.1-0.1,1.5-0.4
			c0.3-0.3,0.5-0.6,0.5-1c0-0.4-0.2-0.7-0.5-1c-0.3-0.3-1.1-0.6-2.3-0.8c-1.9-0.4-3.3-1-4.2-1.7c-0.8-0.7-1.3-1.6-1.3-2.8
			c0-0.7,0.2-1.4,0.6-2.1c0.4-0.7,1.1-1.2,1.9-1.5c0.9-0.4,2-0.6,3.5-0.6c1.8,0,3.2,0.3,4.2,1c1,0.7,1.5,1.8,1.7,3.3l-4.2,0.2
			c-0.1-0.6-0.3-1.1-0.7-1.4s-0.8-0.4-1.5-0.4c-0.5,0-0.9,0.1-1.2,0.3c-0.3,0.2-0.4,0.5-0.4,0.8c0,0.2,0.1,0.4,0.3,0.6
			c0.2,0.2,0.7,0.4,1.5,0.5c1.9,0.4,3.3,0.8,4.2,1.3c0.8,0.4,1.4,1,1.8,1.6c0.4,0.6,0.6,1.3,0.6,2.1c0,0.9-0.3,1.8-0.8,2.5
			c-0.5,0.8-1.2,1.4-2.1,1.8c-0.9,0.4-2.1,0.6-3.5,0.6c-2.4,0-4.1-0.5-5.1-1.4C244.8,19.6,244.2,18.4,244.1,16.9z"/>
	</g>
</g>
</svg>
